<svg xmlns="http://www.w3.org/2000/svg"  viewBox="0 0 113.4 56.301">
  <g id="sage-gateshead_logo" transform="translate(0 0.01)">
    <path id="Path_1" data-name="Path 1" d="M77.33,16.07a17.6,17.6,0,0,0-.52-2.6c-.08-.27-.16-.54-.26-.81A15.46,15.46,0,0,0,75,9.23a.1.1,0,0,0,0-.05,21.79,21.79,0,0,0-3.3-3.89,16.62,16.62,0,0,0-2-1.63A20.13,20.13,0,0,0,67,2.12c-.37-.17-.74-.34-1.12-.49l-.36-.14a21,21,0,0,0-2.07-.7A20.849,20.849,0,0,0,61.17.24,23.34,23.34,0,0,0,56.09.05a10.7,10.7,0,0,0-1.43.13l-.6.08c-.45.08-.9.17-1.34.29-.61.17-1.21.36-1.78.58a17.61,17.61,0,0,0-3.41,1.8c-.47.33-.93.67-1.37,1l-.3.26q-.57.49-1.11,1c-.33.33-.64.69-.94,1l-.68.82c-.23.29-.45.59-.67.88-.46.63-.89,1.27-1.32,1.91a5.9,5.9,0,0,1,.55-.71L41.86,9a11.84,11.84,0,0,0-1.37,2c-.38.62-.75,1.25-1.12,1.9l-.56,1c-1,1.86-2.05,3.84-3.13,5.89-.17.33-.35.65-.54,1-.36.65-.72,1.29-1.07,1.94h-26c-2.22,0-5,0-6.63,1.71C.18,25.67,0,27.5,0,29.21a13.14,13.14,0,0,0,.17,2,17.6,17.6,0,0,0,.52,2.6c.08.27.17.54.26.81A15.46,15.46,0,0,0,2.52,38v.06A22.15,22.15,0,0,0,5.8,42a16.12,16.12,0,0,0,2,1.61,20.3,20.3,0,0,0,2.68,1.55c.37.18.75.34,1.13.49l.35.15c.68.26,1.36.49,2.07.69a21.24,21.24,0,0,0,2.38.55,20,20,0,0,0,5,.23,11.2,11.2,0,0,0,1.42-.15l.6-.1c.45-.08.9-.17,1.35-.29a17.439,17.439,0,0,0,1.77-.58,17.07,17.07,0,0,0,4.78-2.84l.3-.26c.38-.33.75-.68,1.11-1s.64-.69.94-1a8.9,8.9,0,0,0,.68-.82c.22-.28.45-.59.67-.88.35-.48.69-1,1-1.46s.65-.88,1-1.35a47.792,47.792,0,0,0,2.43-4.21c.45-.85.91-1.72,1.37-2.61.32-.59.63-1.19,1-1.79.63-1.19,1.3-2.35,1.94-3.53l-.16.3h25.8c2.22,0,5,0,6.63-1.71,1.28-1.29,1.44-3.11,1.46-4.83a13.361,13.361,0,0,0-.17-2M7.16,40.4a12.417,12.417,0,0,1-1-.91A14,14,0,0,1,4.23,37H4.17a15.34,15.34,0,0,1-1.39-3c-.08-.21-.15-.42-.21-.64a14.26,14.26,0,0,1-.46-2,14.24,14.24,0,0,1-.24-2.43v-.29c0-3.83,2.94-4,4.66-4H33c-.28.53-.57,1.06-.85,1.6L30.8,28.76c-.85,1.56-1.65,3-2.42,4.35a37.488,37.488,0,0,1-2.11,3.38c-.38.55-.76,1.08-1.14,1.57a14.1,14.1,0,0,1-5.25,4.5l-.64.25a10.06,10.06,0,0,1-1.54.44h-.07l-.82.14c-4,.46-8-1.88-8.52-2.19a13,13,0,0,1-1.13-.82M75.63,18.64c0,3.83-2.94,4-4.66,4H44.58c1-1.8,1.93-3.61,2.92-5.4l.58-1.05.79-1.39c.33-.57.66-1.13,1-1.66s.56-.9.85-1.35q.75-1.15,1.59-2.25A13.55,13.55,0,0,1,58,4.88a12.69,12.69,0,0,1,4.44-.81h.46a12.81,12.81,0,0,1,1.65.16c.34.06.67.12,1,.21a11.51,11.51,0,0,1,1.18.36l.37.2h.05l.65.29.41.2h0c.15.07.29.16.43.24a12.76,12.76,0,0,1,1.67,1.16,12.25,12.25,0,0,1,1,.9,13.75,13.75,0,0,1,1.92,2.46.7.7,0,0,1,.06.09,15,15,0,0,1,1.39,3c.08.21.15.43.21.64a15.611,15.611,0,0,1,.47,2s.19,1.26.24,2.26v.45" fill="#fff"/>
    <path id="Path_2" data-name="Path 2" d="M53.4,34.07a1.53,1.53,0,0,0-.29-.9,1.76,1.76,0,0,0-1.41-.6,1.68,1.68,0,0,0-1.32.56.78.78,0,0,0-.2.53c0,.61.54.82,1.48,1.19a14.4,14.4,0,0,1,2.89,1.27,2.36,2.36,0,0,1,1,1.32,3.3,3.3,0,0,1,.12.88,3.05,3.05,0,0,1-.4,1.52,3.6,3.6,0,0,1-3.34,1.59,4.53,4.53,0,0,1-3.15-1.13A3.43,3.43,0,0,1,48,39a5.47,5.47,0,0,1-.17-1.18h1.94a3,3,0,0,0,.18.8,2,2,0,0,0,2,1.16c1.12,0,1.65-.53,1.67-1.08a.82.82,0,0,0-.14-.44c-.2-.38-.66-.59-1.46-.91A15.5,15.5,0,0,1,49.24,36a2.6,2.6,0,0,1-1.07-2.14c0-2,1.77-3,3.58-3a4.6,4.6,0,0,1,1,.1A3.24,3.24,0,0,1,55,32.67a3.79,3.79,0,0,1,.31,1.39Z" fill="#fff"/>
    <path id="Path_3" data-name="Path 3" d="M61.57,38.2a2,2,0,0,1-.28,1.28A1.34,1.34,0,0,1,60.2,40a1.23,1.23,0,0,1-1-.46.91.91,0,0,1-.12-.42,1.05,1.05,0,0,1,.16-.5A1.37,1.37,0,0,1,60,38a10.51,10.51,0,0,1,1.55-.26Zm-2.39-2a.92.92,0,0,1,.77-.78,2.84,2.84,0,0,1,.5-.06,1,1,0,0,1,1,.54,1.79,1.79,0,0,1,.07.56v.11a15,15,0,0,0-2.77.62,3.27,3.27,0,0,0-.93.52,1.79,1.79,0,0,0-.36.37,2.06,2.06,0,0,0-.43,1.28,1.78,1.78,0,0,0,.46,1.26,1.21,1.21,0,0,0,.4.36,3.71,3.71,0,0,0,1.88.45,2.38,2.38,0,0,0,1.73-.61,3,3,0,0,0,.29-.37,2.07,2.07,0,0,0,.09.82h1.75a1.47,1.47,0,0,1-.11-.25,5.56,5.56,0,0,1-.14-1.36V36.7a2.74,2.74,0,0,0-.68-2.27,3.74,3.74,0,0,0-2.15-.59c-.24,0-2.09,0-2.87,1.15a2.29,2.29,0,0,0-.38,1.17Z" fill="#fff"/>
    <path id="Path_4" data-name="Path 4" d="M68.37,35.26c1.07,0,1.35.68,1.35,1.11a1,1,0,0,1-.66,1,1.69,1.69,0,0,1-.65.11,1.16,1.16,0,0,1-1.21-.68,1,1,0,0,1-.06-.38,1.14,1.14,0,0,1,1.23-1.11M72.46,34H70a6.45,6.45,0,0,0-1.41-.2,3.4,3.4,0,0,0-2.35.75,2.32,2.32,0,0,0-.76,1.8,2.23,2.23,0,0,0,.69,1.69,2.53,2.53,0,0,0,.56.36c-.87.32-1.3.64-1.3,1.15s.4.72.82.88c-.29.1-1.5.45-1.5,1.68a1.82,1.82,0,0,0,.93,1.52,5.78,5.78,0,0,0,2.78.61,4.66,4.66,0,0,0,2.92-.77,2.11,2.11,0,0,0,.79-1.65,2,2,0,0,0-.83-1.63,6.21,6.21,0,0,0-2.48-.54,6.12,6.12,0,0,1-1.48-.23.27.27,0,0,1-.13-.23c0-.26.35-.35.37-.36a9.56,9.56,0,0,1,1.52-.17,3.07,3.07,0,0,0,1.58-.62,1.91,1.91,0,0,0,.61-1.45A2.32,2.32,0,0,0,71,35.34h1.51Zm-4,7.1a5,5,0,0,1,1.23.18c.53.19.69.46.69.75a.66.66,0,0,1-.29.54,1.55,1.55,0,0,1-.43.22,4.56,4.56,0,0,1-1.14.13c-.53,0-2-.07-2.06-.92,0-.3.2-.63.82-.79a5,5,0,0,1,1.18-.11" fill="#fff"/>
    <path id="Path_5" data-name="Path 5" d="M75.09,36.7a1.64,1.64,0,0,1,1.62-1.45c.94,0,1.36.63,1.47,1.45Zm5,1.36c0-.41.15-2.57-1.44-3.7a3.21,3.21,0,0,0-2-.56c-2.35,0-3.62,1.75-3.62,3.9a3.68,3.68,0,0,0,1.2,2.91,3.92,3.92,0,0,0,2.47.81,3.48,3.48,0,0,0,2.1-.6,3,3,0,0,0,1-1.21,3.441,3.441,0,0,0,.13-.43l-1.7-.07a1.63,1.63,0,0,1-.22.36,1.68,1.68,0,0,1-1.21.46c-.71,0-1.7-.29-1.82-1.86Z" fill="#fff"/>
    <path id="Path_6" data-name="Path 6" d="M55.53,51.14v4.15a4.42,4.42,0,0,1-.93.53,6.06,6.06,0,0,1-2.36.46,4.26,4.26,0,0,1-2.94-1.05A5.52,5.52,0,0,1,47.82,51a7.16,7.16,0,0,1,.44-2.61,4,4,0,0,1,3.83-2.6,3.2,3.2,0,0,1,3.06,1.86,3.79,3.79,0,0,1,.25.94h-.88a3.21,3.21,0,0,0-.42-1,2.41,2.41,0,0,0-2.06-1,3,3,0,0,0-1.67.49c-.85.57-1.58,1.78-1.58,4,0,.29-.07,3.06,1.81,4.09a3.16,3.16,0,0,0,1.63.38,5.1,5.1,0,0,0,2.44-.66V52H52.55v-.82Z" fill="#fff"/>
    <path id="Path_7" data-name="Path 7" d="M62.05,52.88a3.41,3.41,0,0,1-.42,1.87,2.1,2.1,0,0,1-1.71.82,1.41,1.41,0,0,1-1.42-.84,1.17,1.17,0,0,1-.11-.53c0-1.25,1.4-1.61,2.34-1.86.44-.11.87-.21,1.32-.3Zm-3.42-2.17c.12-.59.45-1.29,1.79-1.29a1.77,1.77,0,0,1,1.32.46c.23.25.31.51.31,1.16v.37a14.94,14.94,0,0,0-3,.74,3.13,3.13,0,0,0-.77.44,2.076,2.076,0,0,0,.62,3.55,2.87,2.87,0,0,0,1,.14,2.37,2.37,0,0,0,1.92-.8,2,2,0,0,0,.27-.39,3.61,3.61,0,0,0,.19,1h.81a5.25,5.25,0,0,1-.19-2V51.48a5.5,5.5,0,0,0-.15-1.57c-.46-1.23-2.07-1.21-2.29-1.21-1.61,0-2.28.76-2.5,1.43a2.06,2.06,0,0,0-.13.58Z" fill="#fff"/>
    <path id="Path_8" data-name="Path 8" d="M68.5,48.9v.66H66.64l-.08,3.95v1a1.62,1.62,0,0,0,.07.63.83.83,0,0,0,.77.42,3.14,3.14,0,0,0,1.07-.25v.74a4,4,0,0,1-1.2.19c-.13,0-1.19,0-1.47-.74a2.28,2.28,0,0,1-.09-.76V53.46l.09-3.91H64.71v-.66h1.11V46.82h.8v2.07Z" fill="#fff"/>
    <path id="Path_9" data-name="Path 9" d="M71.1,51.94a3.11,3.11,0,0,1,1.14-2.25,1.71,1.71,0,0,1,1-.27,1.84,1.84,0,0,1,.88.19,1.73,1.73,0,0,1,.55.48,3.39,3.39,0,0,1,.62,1.84Zm5,.67v-.32a8.859,8.859,0,0,0-.07-.89,3.84,3.84,0,0,0-.39-1.2,2.64,2.64,0,0,0-2.42-1.5,2.83,2.83,0,0,0-1.53.43c-1.53,1-1.51,3.14-1.51,3.49,0,2.92,1.8,3.66,3.12,3.66a2.63,2.63,0,0,0,2.21-1,2.91,2.91,0,0,0,.4-.73l-.8-.14a1.88,1.88,0,0,1-1.81,1.18,2,2,0,0,1-1.14-.31c-1.17-.7-1.12-2.47-1.12-2.65Z" fill="#fff"/>
    <path id="Path_10" data-name="Path 10" d="M82.07,50.82a2.6,2.6,0,0,0-.09-.47,1.3,1.3,0,0,0-1-.88,4.131,4.131,0,0,0-.53,0c-.75,0-1.54.37-1.54,1.21a1.06,1.06,0,0,0,.12.47,1.39,1.39,0,0,0,.84.57c.7.27,1.45.39,2.11.72A1.69,1.69,0,0,1,83,54.07c0,1.5-1.15,2.21-2.57,2.21a2.52,2.52,0,0,1-2.51-1.43,2.89,2.89,0,0,1-.13-.91h.81a2.43,2.43,0,0,0,.13.64,1.65,1.65,0,0,0,1.7,1c.9,0,1.7-.43,1.7-1.4a1.13,1.13,0,0,0-1-1.18c-.5-.17-1-.3-1.54-.48a3.16,3.16,0,0,1-1.13-.63A1.68,1.68,0,0,1,78,50.67a1.82,1.82,0,0,1,.25-.93,2.38,2.38,0,0,1,2.14-1,3.12,3.12,0,0,1,1,.17,2,2,0,0,1,1.39,2Z" fill="#fff"/>
    <path id="Path_11" data-name="Path 11" d="M85.93,45.93v3.83a1.76,1.76,0,0,1,.31-.37,2.57,2.57,0,0,1,1.81-.69,2.37,2.37,0,0,1,2,.93A4.18,4.18,0,0,1,90.41,52v4.14h-.82v-4.7a1.9,1.9,0,0,0-.67-1.73,1.61,1.61,0,0,0-.94-.26,1.92,1.92,0,0,0-1.63.83,3.18,3.18,0,0,0-.43,1.81v4h-.8V45.93Z" fill="#fff"/>
    <path id="Path_12" data-name="Path 12" d="M93.29,51.94a3.09,3.09,0,0,1,1.14-2.25,1.65,1.65,0,0,1,1-.27,1.78,1.78,0,0,1,.89.2,1.66,1.66,0,0,1,.54.47,3.31,3.31,0,0,1,.62,1.84Zm5,.67a1.771,1.771,0,0,0,0-.32,6.18,6.18,0,0,0-.08-.89,4.21,4.21,0,0,0-.38-1.2,2.64,2.64,0,0,0-2.42-1.5,2.86,2.86,0,0,0-1.54.43c-1.52,1-1.51,3.15-1.51,3.49,0,2.92,1.81,3.66,3.12,3.66a2.64,2.64,0,0,0,2.22-1,2.79,2.79,0,0,0,.39-.73l-.79-.14a1.9,1.9,0,0,1-1.82,1.18,2,2,0,0,1-1.14-.31c-1.16-.7-1.12-2.47-1.12-2.65Z" fill="#fff"/>
    <path id="Path_13" data-name="Path 13" d="M104.6,52.88a3.34,3.34,0,0,1-.42,1.87,2.07,2.07,0,0,1-1.71.81,1.41,1.41,0,0,1-1.42-.83,1.27,1.27,0,0,1-.1-.53c0-1.25,1.39-1.61,2.34-1.85.44-.12.87-.22,1.31-.31Zm-3.41-2.17c.12-.59.44-1.3,1.78-1.3a1.84,1.84,0,0,1,1.32.47A1.5,1.5,0,0,1,104.6,51v.37a14.86,14.86,0,0,0-3,.74,2.84,2.84,0,0,0-.76.44,2.066,2.066,0,0,0,.62,3.55,2.82,2.82,0,0,0,.94.14,2.4,2.4,0,0,0,1.92-.8,1.61,1.61,0,0,0,.27-.39,3.61,3.61,0,0,0,.19,1h.81a5.7,5.7,0,0,1-.19-2V51.48a5.15,5.15,0,0,0-.15-1.57c-.45-1.23-2.07-1.21-2.29-1.21-1.61,0-2.27.76-2.49,1.43a2.18,2.18,0,0,0-.14.58Z" fill="#fff"/>
    <path id="Path_14" data-name="Path 14" d="M110.36,49.42a2,2,0,0,1,1.89,1.72,4.79,4.79,0,0,1,.19,1.36,4.85,4.85,0,0,1-.4,2,1.8,1.8,0,0,1-1.68,1.09,2,2,0,0,1-1.89-1.68,4.64,4.64,0,0,1-.18-1.36s-.07-3.09,2.07-3.1m2.86-3.49h-.79V50a2.51,2.51,0,0,0-.45-.63,2.42,2.42,0,0,0-1.7-.66,2.5,2.5,0,0,0-1.68.61,4.54,4.54,0,0,0-1.17,3.25c0,2.15,1,3.19,1.91,3.55a2.71,2.71,0,0,0,1,.17,2.29,2.29,0,0,0,2.08-1.2.52.52,0,0,0,0,.18,2.72,2.72,0,0,0,.13.85h.85a2.49,2.49,0,0,1-.14-.85q0-.615,0-1.23Z" fill="#fff"/>
  </g>
</svg>
